<svg xmlns="http://www.w3.org/2000/svg" width="20" height="15" viewBox="0 0 20 15">
    <g fill="none" fill-rule="evenodd">
        <path d="M-6-9h32v32H-6z"/>
        <path fill="#017F82" fill-rule="nonzero" d="M18.125 0H1.875C.839 0 0 .84 0 1.875v11.25C0 14.161.84 15 1.875 15h16.25C19.161 15 20 14.16 20 13.125V1.875C20 .839 19.16 0 18.125 0zM18 2v1.488c-.862.665-2.237 1.7-5.176 3.882C12.176 7.853 10.893 9.013 10 9c-.893.014-2.176-1.147-2.824-1.63C4.238 5.19 2.862 4.153 2 3.488V2h16zM2 13V6c.881.688 2.131 1.654 4.036 3.117.84.649 2.313 2.081 3.964 2.073 1.643.008 3.097-1.403 3.964-2.073A651.692 651.692 0 0 0 18 6v7H2z"/>
    </g>
</svg>
